<?xml version="1.0" encoding="UTF-8"?>
<svg xmlns="http://www.w3.org/2000/svg" viewBox="0 0 778.4 912.0" role="img" aria-label="Códigos postales de Madrid">
  <g id="distritos">
    <path id="cp-28001" class="distrito" data-nombre="28001" d="M420.4 614.0 421.2 613.2 421.0 611.6 421.5 611.1 428.7 609.1 445.8 599.1 446.5 587.1 441.4 587.0 438.9 587.4 437.0 587.1 435.1 586.2 420.9 585.2 418.8 595.9 418.7 600.2 418.3 600.7 416.7 600.5 412.1 612.8 417.2 611.8 418.6 612.1 419.2 614.0Z"/>
    <path id="cp-28002" class="distrito" data-nombre="28002" d="M474.3 536.3 472.3 524.1 466.3 525.9 458.4 525.7 451.5 527.8 449.6 527.9 432.2 527.8 427.5 527.6 426.6 527.2 419.9 535.4 416.5 541.1 416.7 541.7 425.5 542.7 426.2 544.4 432.4 551.5 436.3 557.0 443.0 565.0 448.0 561.2 454.8 559.5 457.2 558.2 469.9 549.0 477.2 545.6 476.0 542.8Z"/>
    <path id="cp-28003" class="distrito" data-nombre="28003" d="M362.2 560.8 372.7 561.5 379.8 561.5 380.4 561.9 388.5 562.5 394.1 562.3 413.7 563.5 411.6 555.5 412.9 541.4 377.9 538.9 366.0 542.6 360.6 539.9 356.4 545.0 356.5 546.7 356.7 548.0 357.2 548.5 361.3 558.5 362.2 559.7Z"/>
    <path id="cp-28004" class="distrito" data-nombre="28004" d="M382.1 598.9 382.0 604.3 381.2 608.0 384.5 610.8 394.5 611.7 403.5 614.4 410.8 612.8 415.5 600.2 413.7 599.5 413.6 597.4 406.4 592.8 406.1 591.6 405.1 591.1 403.6 591.7 393.2 588.7 392.6 587.9 389.1 587.8 386.3 587.2 385.2 588.5 384.3 593.0Z"/>
    <path id="cp-28005" class="distrito" data-nombre="28005" d="M368.3 629.4 361.2 629.2 360.9 626.0 354.7 625.6 354.2 625.2 354.3 624.2 351.6 624.9 349.8 629.0 349.9 632.2 351.0 638.0 352.2 642.1 351.9 645.9 350.2 651.8 350.2 654.7 351.3 662.0 352.2 664.3 354.1 665.9 357.7 667.2 362.3 666.6 367.7 668.4 372.7 673.5 376.6 676.1 386.1 679.3 391.4 672.3 396.1 665.1 394.8 663.0 394.9 661.6 391.5 655.8 389.0 654.7 388.8 652.3 389.5 651.6 387.8 647.5 386.1 644.7 383.5 641.3 382.8 640.9 381.7 638.7 381.8 637.9 381.3 636.9 379.9 637.1 379.5 636.8 379.3 635.8 380.7 633.0 380.7 628.1 380.4 627.0 379.4 626.8 378.3 624.7 368.8 627.9Z"/>
    <path id="cp-28006" class="distrito" data-nombre="28006" d="M450.9 577.0 435.3 557.7 431.5 552.2 425.2 545.1 424.7 543.7 416.7 542.9 415.6 555.4 416.5 559.9 417.9 560.8 418.5 561.6 417.9 563.3 422.1 570.9 422.9 577.0 421.1 582.3 420.9 584.0 435.3 585.0 437.5 586.0 438.9 586.2 441.4 585.8 447.4 586.0 447.7 586.5 447.0 598.4 456.9 592.2 459.0 589.8Z"/>
    <path id="cp-28007" class="distrito" data-nombre="28007" d="M460.9 609.6 458.8 635.5 457.7 637.0 451.7 637.2 449.8 639.3 446.8 640.4 446.0 639.5 446.5 638.3 445.7 637.9 441.6 644.8 440.1 646.2 440.0 647.6 438.4 648.3 435.0 654.7 421.7 650.1 416.8 646.5 420.1 652.2 423.7 656.7 431.0 660.8 438.8 664.2 442.6 667.1 446.3 670.6 448.9 674.3 452.3 680.7 454.4 678.9 456.1 676.6 461.5 668.0 463.3 663.3 465.7 655.4 472.6 637.3 479.8 622.4 481.0 619.2 481.4 616.5Z"/>
    <path id="cp-28008" class="distrito" data-nombre="28008" d="M357.2 571.4 354.2 571.1 346.2 569.0 344.0 570.2 329.1 574.7 325.3 575.3 319.9 574.6 317.1 574.9 320.4 584.8 324.0 591.2 326.2 593.9 338.0 603.8 347.0 608.2 348.2 609.5 350.1 612.8 356.4 612.8 364.7 612.0 369.9 606.7 373.5 604.0 368.6 593.8 365.5 588.9 357.1 572.9Z"/>
    <path id="cp-28009" class="distrito" data-nombre="28009" d="M422.2 612.1 422.3 613.5 420.9 615.4 421.8 628.5 421.1 640.6 422.3 642.1 423.5 642.7 433.9 641.3 441.1 643.3 445.2 636.5 445.8 636.5 447.8 637.8 447.5 638.9 449.2 638.3 451.0 636.2 452.3 635.8 457.0 636.0 457.6 635.2 459.3 610.7 459.9 608.8 460.5 593.5 459.0 591.8 457.6 593.2 450.2 597.9 431.7 609.0 429.1 610.2Z"/>
    <path id="cp-28010" class="distrito" data-nombre="28010" d="M388.9 568.6 388.9 574.1 389.3 576.4 388.3 577.3 386.1 585.1 386.4 586.0 389.3 586.7 393.2 586.8 393.8 587.6 403.6 590.4 404.4 589.9 405.5 589.9 406.7 590.5 407.3 591.9 413.0 595.7 414.2 596.4 414.5 596.2 416.5 589.2 418.3 577.6 417.8 572.8 414.1 564.7 394.0 563.5 389.1 563.7 388.8 565.9 389.5 567.7Z"/>
    <path id="cp-28011" class="distrito" data-nombre="28011" d="M231.0 607.7 228.9 619.3 230.5 628.1 232.9 634.1 234.7 645.1 238.1 652.7 239.2 655.9 243.3 661.1 243.0 666.2 249.3 667.2 254.9 667.3 264.8 669.0 271.7 668.6 281.2 670.4 285.0 663.7 286.3 662.3 293.6 657.4 298.0 655.7 303.2 654.7 308.1 654.5 311.9 654.7 321.4 656.3 324.9 655.4 327.5 654.2 330.1 651.8 332.3 651.2 335.9 653.9 341.7 655.8 343.2 653.7 349.0 654.1 349.0 651.6 350.7 645.6 351.0 642.2 349.8 638.2 348.7 632.4 348.6 628.9 350.7 624.0 354.4 622.9 355.7 614.0 349.5 613.9 346.2 609.1 337.3 604.7 325.3 594.8 323.0 591.8 319.4 585.3 315.8 575.0 311.2 573.4 308.8 571.6 298.1 559.6 288.4 553.7 276.4 547.2 258.4 538.0 250.7 547.6 250.5 587.7 233.5 601.5Z"/>
    <path id="cp-28012" class="distrito" data-nombre="28012" d="M379.5 624.4 380.3 625.8 381.3 626.0 381.9 628.0 381.9 633.2 380.8 635.7 382.3 635.8 383.1 637.8 382.9 638.4 383.7 640.1 384.4 640.4 387.1 644.0 388.8 647.0 390.8 651.8 390.0 652.8 390.0 653.9 392.4 655.0 396.1 661.2 396.1 662.7 398.3 662.3 405.5 652.1 405.8 651.1 408.8 647.3 410.6 647.0 411.5 645.6 413.8 644.0 412.2 641.8 406.4 639.0 396.3 632.4 396.1 631.7 396.7 629.8 396.1 629.1 395.8 627.8 395.4 623.1 391.8 622.5 386.0 623.1Z"/>
    <path id="cp-28013" class="distrito" data-nombre="28013" d="M374.8 603.8 374.5 604.8 370.7 607.6 365.4 613.0 356.9 613.9 355.4 624.4 361.8 624.9 362.1 628.1 367.5 628.3 368.0 626.9 378.5 623.4 385.8 621.9 391.1 621.4 390.9 620.1 391.2 619.7 398.1 617.1 401.7 615.2 396.6 613.4 390.4 612.5 389.1 612.4 388.1 614.1 387.5 614.2 387.2 613.7 387.5 612.3 383.9 611.9Z"/>
    <path id="cp-28014" class="distrito" data-nombre="28014" d="M419.8 615.3 418.2 614.9 417.7 613.1 417.1 613.0 403.0 615.5 402.2 616.3 398.6 618.2 392.1 620.6 392.3 621.4 396.5 622.3 397.0 627.6 397.2 628.7 397.9 629.5 397.4 631.7 407.1 638.0 412.8 640.8 415.1 643.7 422.1 649.0 434.5 653.4 437.5 647.5 438.9 646.8 439.0 645.6 440.4 644.3 433.9 642.5 423.5 643.9 421.6 643.1 420.0 641.2 420.6 628.5Z"/>
    <path id="cp-28015" class="distrito" data-nombre="28015" d="M365.0 562.0 360.6 562.2 359.7 563.9 358.3 572.5 373.5 600.9 380.2 607.1 380.8 604.2 380.9 599.0 381.3 597.1 383.1 592.7 384.1 588.1 385.1 587.1 384.9 584.8 387.2 576.8 388.1 576.1 387.7 571.7 387.7 568.4 388.1 567.7 387.6 565.8 387.9 563.6 380.1 563.1 379.6 562.7 372.6 562.7Z"/>
    <path id="cp-28016" class="distrito" data-nombre="28016" d="M441.3 483.9 438.6 496.3 438.5 498.2 437.8 499.7 437.2 504.1 435.0 507.5 436.6 511.5 437.0 514.1 435.0 516.5 434.3 516.8 427.3 526.2 432.2 526.6 451.3 526.7 458.1 524.6 463.6 524.5 465.0 524.9 472.2 522.9 470.7 511.7 468.3 503.4 462.3 488.4 458.0 479.9 455.3 476.0 447.8 478.9 443.1 483.5Z"/>
    <path id="cp-28017" class="distrito" data-nombre="28017" d="M551.6 616.4 547.6 609.6 546.8 607.5 544.5 605.2 540.7 599.8 541.2 596.6 540.2 594.5 533.0 581.4 528.5 574.9 528.3 573.0 524.0 565.7 505.0 577.8 481.8 582.2 478.5 583.6 479.3 592.2 481.8 608.2 486.8 609.1 488.6 611.6 498.8 622.4 506.6 625.5 513.6 626.9 522.4 627.3 534.3 625.3 538.6 625.2 536.5 620.8 538.9 616.7 539.4 616.4 549.2 622.6 552.6 620.6 552.8 620.0Z"/>
    <path id="cp-28018" class="distrito" data-nombre="28018" d="M470.4 696.5 470.7 698.5 469.6 700.4 467.9 702.1 467.7 703.3 464.8 707.9 462.0 710.5 461.2 712.7 461.7 714.4 464.7 718.8 471.2 724.9 476.4 728.0 483.0 730.5 489.5 731.6 494.8 731.6 497.2 728.6 499.4 727.2 502.5 726.1 510.9 724.5 515.9 722.3 519.8 719.9 524.3 715.9 530.0 708.1 526.5 705.7 512.8 697.7 509.2 703.4 508.7 703.7 503.4 700.3 502.6 700.6 499.2 699.1 495.5 699.0 494.8 698.3 494.4 698.8 493.0 698.8 491.1 697.1 490.0 692.7 489.9 690.9 485.5 690.3 478.4 685.5 477.2 688.3 473.7 692.2 472.0 695.5Z"/>
    <path id="cp-28019" class="distrito" data-nombre="28019" d="M313.6 686.0 322.6 692.3 331.9 697.6 332.1 698.2 331.1 699.5 339.8 704.4 341.8 705.3 350.4 707.1 360.0 706.9 360.7 705.5 369.0 695.5 378.2 690.4 380.1 688.9 383.3 684.9 385.7 680.4 376.0 677.1 371.9 674.4 367.2 669.5 362.0 667.7 357.4 668.4 353.4 666.9 351.3 665.1 350.1 662.4 349.1 655.3 343.7 654.8 342.3 657.0 338.6 660.0 336.0 661.6 325.7 671.2 319.9 677.5 318.4 679.7 317.3 682.3Z"/>
    <path id="cp-28020" class="distrito" data-nombre="28020" d="M399.7 499.6 400.4 501.7 399.5 503.5 395.1 508.6 393.8 510.6 391.1 517.7 388.4 538.4 409.4 539.9 409.1 534.7 410.5 532.8 412.4 525.4 414.2 520.2 414.8 510.4 413.5 510.1 413.2 509.6 413.5 507.2 414.8 506.9 414.3 505.5 414.9 502.7 413.9 502.6 413.6 502.0 414.0 499.3 415.2 498.4 415.1 496.5 415.9 494.6 415.8 488.6 414.4 489.3 408.6 490.7 408.3 491.4 405.5 492.8 404.4 493.9 401.3 499.0 399.9 499.1Z"/>
    <path id="cp-28021" class="distrito" data-nombre="28021" d="M348.2 847.3 355.3 854.6 367.3 862.3 370.5 868.9 371.2 874.4 375.9 874.6 390.2 878.1 397.4 877.5 404.6 877.8 411.1 883.4 414.9 880.9 419.9 879.0 428.1 877.1 430.2 875.1 432.8 874.0 434.9 872.0 435.5 871.4 436.7 868.2 439.3 866.6 444.3 866.7 446.2 867.5 451.8 868.1 457.4 870.3 459.5 870.1 460.4 869.7 463.6 866.9 464.9 864.6 468.6 860.9 470.9 859.5 472.7 859.6 476.6 862.5 479.3 862.5 492.9 854.3 477.3 842.3 474.2 832.5 472.2 829.4 471.4 825.9 470.0 823.6 466.8 820.1 459.4 817.0 459.6 809.9 459.1 807.1 453.0 803.7 451.7 802.3 450.2 796.6 449.0 794.6 445.1 792.2 444.6 789.3 442.8 783.4 439.4 777.5 435.5 774.1 432.4 776.1 428.0 782.5 424.8 786.4 418.3 793.4 413.2 797.7 410.9 799.2 405.6 801.4 398.4 805.2 387.9 803.0 384.7 804.2 377.5 795.1 370.1 790.6 365.5 778.5 355.2 768.5 353.3 767.8 345.7 843.6Z"/>
    <path id="cp-28022" class="distrito" data-nombre="28022" d="M668.4 567.9 671.9 565.1 674.5 563.9 676.8 563.4 684.1 563.4 686.5 562.6 697.0 556.2 702.9 553.2 706.2 552.4 716.4 550.7 724.1 548.1 725.3 545.2 730.6 546.0 730.1 544.8 730.8 544.2 736.4 545.0 737.0 544.7 736.1 541.2 733.4 538.8 698.2 533.0 690.5 532.5 662.4 532.0 630.0 532.4 602.3 532.0 592.5 532.9 574.9 532.4 575.0 533.1 574.4 533.5 553.9 533.7 559.2 537.0 563.3 537.6 563.6 538.7 565.2 540.9 567.6 547.2 571.8 555.4 571.6 556.1 577.9 570.7 579.1 576.0 579.1 579.7 580.0 587.6 580.8 590.0 579.8 596.0 579.8 600.5 578.6 604.8 580.2 604.2 581.0 604.4 581.6 615.6 583.7 617.8 603.0 608.3 606.3 601.7 631.0 590.3 643.9 579.3 643.3 578.7 644.6 574.0 644.1 572.4 644.3 571.7 657.4 564.1Z"/>
    <path id="cp-28023" class="distrito" data-nombre="28023" d="M115.6 445.0 115.3 446.9 114.7 447.6 115.1 448.3 113.0 461.5 115.8 463.6 113.0 469.8 111.6 474.5 111.4 482.7 114.0 484.7 119.0 491.3 126.0 487.5 130.2 486.2 133.9 487.0 138.8 490.5 141.0 491.0 143.9 490.7 146.7 491.6 153.8 491.8 158.5 493.6 163.2 493.6 169.2 492.0 174.8 494.1 181.5 495.5 185.1 498.1 189.1 502.9 192.6 506.4 199.2 509.8 200.2 512.0 199.7 513.6 201.9 515.5 202.7 517.4 205.0 520.5 205.0 521.5 204.2 522.5 206.1 526.4 208.3 532.8 209.0 537.3 209.9 537.0 210.3 537.6 210.8 542.0 213.0 542.1 213.5 542.6 211.2 551.1 216.0 549.3 221.8 545.9 232.4 546.5 234.4 547.6 236.4 547.9 249.8 546.8 258.0 536.7 269.9 531.1 293.2 522.2 289.6 510.7 288.8 503.8 289.5 503.1 294.1 503.9 293.9 501.0 292.0 498.1 287.6 484.4 287.7 481.6 286.0 475.8 285.4 471.6 283.4 467.1 283.4 462.6 286.6 454.1 286.7 451.9 285.0 440.7 284.1 429.9 283.2 427.6 281.5 425.6 268.5 435.7 247.9 453.2 237.3 463.2 230.7 462.9 223.4 451.9 221.8 450.1 219.5 449.1 216.4 450.5 213.8 453.3 209.5 464.8 203.8 469.7 202.9 473.9 200.8 474.9 190.8 476.6 132.6 452.5Z"/>
    <path id="cp-28024" class="distrito" data-nombre="28024" d="M119.4 678.4 120.7 679.8 126.1 689.1 129.7 696.9 136.1 705.3 142.7 719.1 147.2 724.7 162.3 747.8 163.8 750.6 168.3 764.2 175.4 757.6 178.5 760.2 197.3 735.4 206.1 726.8 208.7 726.7 216.5 720.8 216.8 718.4 217.9 717.5 218.7 717.6 219.8 719.2 222.6 718.1 230.9 714.0 234.8 711.0 240.8 707.3 248.6 700.4 252.4 695.9 256.6 692.4 259.0 694.1 263.3 700.3 272.0 709.6 277.1 716.0 277.7 715.8 277.1 714.6 268.9 705.7 272.2 701.5 274.1 694.8 273.6 684.4 274.1 677.4 274.6 675.4 278.3 673.6 280.3 671.4 271.6 669.8 264.6 670.2 254.7 668.5 249.1 668.4 241.2 667.2 240.1 667.5 236.7 669.9 235.6 672.6 235.7 673.9 232.9 675.7 231.6 678.9 230.1 680.3 228.3 683.6 217.2 687.3 211.9 688.5 211.2 688.0 211.6 684.4 202.9 685.1 197.1 688.9 181.0 689.4 173.6 688.5 167.2 687.2 158.9 684.0 151.8 678.7 147.4 676.9 130.0 677.3 123.6 678.8 120.3 678.1Z"/>
    <path id="cp-28025" class="distrito" data-nombre="28025" d="M301.5 735.4 305.7 738.4 307.1 739.0 310.3 739.2 315.7 737.9 319.8 737.8 325.5 737.9 335.6 739.2 339.5 739.2 355.1 738.0 355.9 733.8 357.1 717.4 359.4 708.2 350.2 708.3 341.5 706.5 339.3 705.5 330.3 700.5 329.7 699.2 330.6 698.2 322.0 693.3 312.7 686.8 309.6 690.1 306.9 694.6 305.8 698.2 304.8 700.2 307.5 702.1 307.9 702.6 305.3 706.2 301.4 708.8 299.1 713.7 297.7 719.5 296.3 723.0 297.0 725.2 296.9 727.3 294.1 730.7 296.8 731.7 299.9 734.1 300.8 733.9 301.6 734.8Z"/>
    <path id="cp-28026" class="distrito" data-nombre="28026" d="M387.2 679.9 386.8 681.3 384.3 685.5 380.9 689.7 378.8 691.4 369.8 696.4 361.7 706.3 360.5 708.6 358.3 717.6 356.9 736.1 368.9 736.7 386.6 743.2 389.3 743.6 390.4 740.0 390.9 733.7 393.9 727.1 395.8 725.2 405.2 719.3 405.2 717.6 408.8 714.8 418.5 715.7 422.5 713.1 413.6 709.4 406.6 703.1 399.5 695.0 391.6 683.3 389.4 681.1Z"/>
    <path id="cp-28027" class="distrito" data-nombre="28027" d="M526.0 563.5 567.4 549.3 566.5 547.7 564.1 541.4 562.6 539.4 562.3 538.6 558.6 538.0 551.7 533.8 551.5 532.9 539.6 533.6 529.0 535.6 524.6 535.6 509.3 532.5 507.0 532.3 504.8 532.9 499.3 536.0 478.8 546.2 480.5 550.4 481.2 553.4 481.6 559.9 478.4 582.3 481.6 581.0 504.6 576.6 521.8 565.4ZM552.4 532.7 554.1 532.5 567.0 532.2 554.6 532.0Z"/>
    <path id="cp-28028" class="distrito" data-nombre="28028" d="M443.8 566.0 451.9 576.3 460.2 589.4 459.9 590.9 461.4 592.7 461.7 593.6 461.0 608.4 481.3 615.2 480.7 608.7 478.1 592.3 477.3 583.3 477.2 581.3 480.4 559.9 480.1 553.6 479.4 550.8 477.7 546.7 470.6 550.0 457.8 559.2 455.2 560.6 448.4 562.3Z"/>
    <path id="cp-28029" class="distrito" data-nombre="28029" d="M386.5 444.7 386.1 445.2 369.5 449.8 365.3 451.7 363.8 453.4 363.8 457.9 365.0 460.1 365.5 464.7 367.3 473.0 370.7 473.2 373.1 475.5 376.6 480.3 382.4 482.3 382.9 482.8 385.0 483.1 395.4 487.9 400.8 489.7 404.0 490.3 405.2 491.5 407.0 490.7 406.1 489.8 406.2 489.3 407.9 488.3 408.4 488.3 409.2 489.5 415.1 487.6 415.5 486.7 417.1 485.4 418.3 479.3 417.7 476.6 419.9 467.2 421.1 465.0 424.2 443.1 416.6 439.3 412.2 436.5 407.5 435.9 403.2 436.9 387.1 444.9Z"/>
    <path id="cp-28030" class="distrito" data-nombre="28030" d="M539.5 626.4 534.4 626.5 522.4 628.5 513.5 628.1 506.3 626.7 498.1 623.3 487.7 612.4 486.1 610.2 482.0 609.5 482.6 616.0 482.1 619.6 473.8 637.8 469.1 649.9 486.0 651.8 489.7 653.3 493.5 656.4 497.6 661.8 504.6 669.9 511.9 677.8 515.4 680.7 531.0 685.2 537.7 699.9 537.8 705.6 548.2 697.8 552.2 694.2 552.9 691.1 552.3 688.7 542.7 685.2 542.3 684.4 546.1 675.3 549.7 659.3 560.0 633.2 559.2 632.3 555.7 632.1 552.2 631.2 545.0 628.0Z"/>
    <path id="cp-28031" class="distrito" data-nombre="28031" d="M595.4 680.6 591.4 686.6 587.5 696.8 585.6 700.3 585.0 700.3 579.8 697.7 562.0 692.3 558.4 696.4 554.5 706.8 553.8 706.8 552.9 705.9 555.3 698.7 551.0 696.9 537.8 707.1 537.7 711.4 537.4 711.9 536.9 711.9 531.0 708.8 525.2 716.7 520.5 720.9 516.4 723.4 511.3 725.6 502.8 727.3 499.9 728.3 498.0 729.5 495.6 732.5 493.5 738.1 495.5 748.3 496.8 750.6 500.6 755.2 503.0 752.9 519.4 744.9 527.3 740.4 535.7 745.5 543.0 750.8 547.3 745.7 547.9 745.5 553.5 749.7 555.2 751.6 560.8 750.7 563.0 751.4 571.8 746.8 568.5 738.3 573.2 724.1 573.7 723.7 575.7 723.6 582.5 725.3 607.1 739.9 633.7 756.3 653.2 759.3 662.6 762.5 670.9 767.6 674.0 768.6 681.4 758.6 686.8 747.9 695.6 746.4 696.7 744.1 687.3 736.8 675.3 722.0 669.3 718.0 662.6 711.2 654.2 703.9 648.4 701.5 644.9 700.8 628.5 693.8 620.2 691.3 612.8 688.3 599.1 686.0 596.2 683.2Z"/>
    <path id="cp-28032" class="distrito" data-nombre="28032" d="M556.5 698.2 557.4 695.7 561.3 691.2 562.0 691.1 580.2 696.6 585.0 699.0 586.4 696.4 590.3 686.1 596.0 677.4 606.6 669.3 608.0 666.3 616.2 659.4 623.6 654.0 626.9 648.8 631.6 643.4 637.2 636.2 642.2 621.6 645.2 619.6 649.0 611.7 650.5 607.5 651.3 603.5 653.6 598.0 649.7 597.0 649.3 596.6 651.6 586.9 650.5 586.5 649.9 584.5 645.9 577.0 645.9 575.5 646.4 575.2 654.2 573.9 653.6 570.4 652.8 568.1 645.4 572.4 645.8 574.2 644.6 578.3 645.5 578.9 645.4 579.7 631.7 591.3 607.0 602.7 603.7 609.3 583.8 619.1 583.1 618.9 580.4 615.9 579.9 605.6 577.1 606.8 574.1 606.4 570.9 608.8 570.5 610.0 569.3 610.5 568.7 610.5 567.9 609.2 565.6 608.8 563.4 610.0 562.4 612.1 560.8 613.3 560.5 614.6 557.0 616.4 554.7 618.1 553.5 621.5 549.5 623.9 548.8 623.8 539.6 617.9 537.8 620.9 540.0 625.3 545.5 626.9 552.5 630.0 556.0 630.9 559.7 631.2 561.2 633.0 550.8 659.6 547.3 675.6 543.7 684.3 553.3 687.9 554.2 691.2 553.3 694.7 552.1 696.0 555.6 697.3Z"/>
    <path id="cp-28033" class="distrito" data-nombre="28033" d="M469.5 503.0 473.9 500.8 476.2 501.5 479.2 504.0 481.7 496.0 496.4 475.6 497.1 475.1 497.7 474.2 497.4 471.8 497.9 470.6 498.8 469.5 500.3 469.5 500.8 468.0 502.9 466.9 504.2 467.4 504.3 469.2 508.6 470.7 509.4 472.0 511.2 473.4 516.2 475.9 533.4 477.2 535.7 478.9 543.7 480.1 544.8 479.8 545.8 478.8 548.0 481.1 549.1 476.6 553.2 470.0 549.4 469.2 544.6 466.6 540.0 462.5 535.3 455.7 532.4 453.0 528.8 450.6 522.8 449.1 514.1 448.8 509.0 447.0 500.8 445.9 484.2 441.3 464.5 437.8 451.0 439.2 451.7 442.9 450.1 455.9 450.2 460.1 450.8 463.1 452.5 468.2 456.1 475.0 459.0 479.3 463.3 487.8Z"/>
    <path id="cp-28034" class="distrito" data-nombre="28034" d="M358.3 406.3 363.0 412.8 364.7 420.5 367.7 424.5 367.1 440.9 366.7 441.5 362.1 443.2 362.7 444.5 363.8 444.6 365.9 446.9 366.8 449.7 371.5 447.8 385.1 444.2 383.8 441.4 384.2 440.6 385.4 440.4 386.3 442.2 387.5 443.4 402.7 435.8 407.4 434.7 412.8 435.4 417.2 438.2 424.9 442.1 443.0 438.6 449.5 438.1 443.8 413.3 442.1 408.1 438.7 391.1 436.2 383.9 435.2 375.6 431.4 363.1 425.4 365.2 419.2 369.8 427.1 375.0 427.4 375.5 426.8 376.7 425.9 376.9 418.1 371.8 404.4 393.0 399.1 399.4 394.8 397.2 384.2 396.8 378.9 397.0 376.1 398.5 366.6 400.9 362.9 401.0Z"/>
    <path id="cp-28035" class="distrito" data-nombre="28035" d="M308.3 519.2 316.6 517.6 323.7 517.1 329.3 515.7 332.7 513.1 336.0 512.4 338.9 510.6 341.4 509.6 341.1 505.6 343.7 502.3 347.3 501.6 349.7 502.3 350.1 503.0 349.2 505.2 354.0 503.9 356.2 504.7 357.6 500.6 355.1 496.1 355.0 494.1 355.5 492.2 356.7 490.4 357.2 488.1 355.9 485.2 357.1 479.2 354.4 474.0 355.1 473.7 366.4 476.7 366.3 473.7 364.3 464.9 363.8 460.4 362.6 458.1 362.3 453.7 364.5 450.8 365.6 450.3 365.0 447.7 363.1 445.6 361.9 445.6 360.7 442.8 361.1 442.4 365.9 440.5 366.5 424.7 363.6 420.9 362.0 413.4 357.6 407.4 354.0 412.7 347.2 421.1 339.9 426.7 337.2 431.0 335.7 432.8 333.9 434.0 332.3 433.6 331.6 432.6 329.6 433.0 326.9 432.2 325.2 430.1 325.0 427.0 327.8 422.3 333.5 416.6 337.0 414.5 342.4 407.5 354.7 395.4 342.6 397.5 332.4 408.9 331.0 412.5 330.5 412.9 305.3 400.4 297.8 411.2 282.4 424.8 284.3 427.1 285.2 429.7 286.2 440.6 287.9 451.8 287.7 454.4 284.5 462.9 284.6 466.9 286.6 471.4 287.2 475.6 288.9 481.3 288.7 484.1 293.1 497.7 295.0 500.7 295.4 504.2 299.2 505.4 304.7 511.2Z"/>
    <path id="cp-28036" class="distrito" data-nombre="28036" d="M416.8 538.2 419.0 534.6 425.2 527.3 428.5 522.4 433.4 516.1 435.8 513.7 435.5 511.8 434.6 509.5 434.0 508.7 433.8 507.5 435.4 504.3 436.1 503.6 436.6 499.5 437.3 498.0 437.4 496.1 440.1 484.3 440.0 483.0 442.4 482.5 447.1 477.8 454.7 474.9 451.3 468.7 449.0 460.3 449.0 452.9 450.5 442.9 449.8 439.3 443.2 439.8 438.8 440.7 438.3 449.7 432.3 470.5 429.2 471.9 427.7 474.5 429.6 476.0 429.3 477.2 428.8 477.4 427.2 476.2 426.7 476.2 424.4 480.2 423.3 480.8 422.3 482.6 421.7 483.0 420.5 486.1 420.7 489.3 420.4 490.0 420.2 505.0 418.9 515.9 418.7 525.8 417.7 528.4 417.5 534.1Z"/>
    <path id="cp-28037" class="distrito" data-nombre="28037" d="M567.9 550.4 551.8 555.7 547.5 557.5 544.7 558.1 525.1 565.2 529.3 572.5 529.6 574.4 534.0 580.7 541.3 593.9 542.4 596.4 541.8 599.3 545.4 604.4 547.8 606.8 548.7 609.1 552.6 615.8 553.5 618.1 553.8 617.3 556.3 615.4 559.4 613.8 559.9 612.4 561.4 611.4 562.6 609.0 565.6 607.6 568.5 608.2 569.3 609.2 570.0 607.9 573.7 605.3 577.2 605.4 578.6 600.3 578.6 595.9 579.6 589.9 578.9 587.9 577.9 579.8 577.9 576.2 576.8 571.1 570.4 556.4 570.5 555.6Z"/>
    <path id="cp-28038" class="distrito" data-nombre="28038" d="M536.6 710.4 536.6 700.3 530.2 686.2 514.8 681.7 511.0 678.7 496.6 662.6 492.6 657.1 489.1 654.4 485.8 653.0 468.6 651.1 464.4 663.7 462.6 668.4 460.6 671.8 486.0 689.3 490.8 689.8 492.2 696.5 493.6 697.7 494.2 697.0 494.9 696.9 495.8 697.8 499.5 698.0 502.7 699.3 503.5 699.1 508.5 702.3 512.0 696.5 512.6 696.2Z"/>
    <path id="cp-28039" class="distrito" data-nombre="28039" d="M357.3 505.4 367.4 509.2 368.4 509.2 371.3 511.6 371.5 513.4 370.1 515.8 369.6 522.2 372.5 524.8 376.3 532.6 377.3 535.3 378.3 536.6 378.4 537.7 386.9 538.4 387.5 537.4 389.9 517.5 391.5 512.7 394.1 507.9 398.5 502.8 399.1 501.7 398.8 500.6 397.7 499.8 397.9 499.0 398.8 498.7 399.3 497.8 400.4 498.0 403.4 493.2 404.3 492.3 403.6 491.5 400.5 490.9 395.0 489.1 384.5 484.2 382.4 484.1 381.9 483.4 376.0 481.3 372.2 476.3 370.0 474.2 367.5 474.2 367.6 477.5 367.1 478.1 356.3 475.2 357.6 477.3 358.4 479.2 357.1 485.3 358.4 488.1 357.8 490.8 356.5 492.8 356.2 494.2 356.2 495.6 358.9 500.5Z"/>
    <path id="cp-28040" class="distrito" data-nombre="28040" d="M358.2 507.2 354.2 505.2 347.7 506.6 346.3 505.9 346.3 505.2 348.5 504.2 348.8 503.2 347.4 502.8 344.2 503.4 342.2 506.2 342.4 510.5 339.4 511.6 336.5 513.5 333.3 514.1 329.8 516.8 323.9 518.3 316.8 518.8 307.8 520.5 303.8 511.9 298.5 506.4 294.7 505.2 290.1 504.5 290.8 510.4 294.6 522.3 294.4 522.9 270.4 532.2 259.6 537.2 277.0 546.1 289.0 552.7 298.8 558.6 304.6 564.7 309.6 570.7 311.7 572.3 316.3 573.9 318.8 573.4 325.2 574.1 328.9 573.5 343.6 569.0 346.3 567.8 354.5 569.9 357.3 570.2 358.6 563.5 359.7 561.3 360.9 560.8 361.0 560.3 360.2 559.0 356.2 549.1 355.6 548.6 355.3 544.5 359.3 539.4 360.5 538.7 365.9 541.4 377.2 537.8 371.4 525.3 368.5 522.7 368.9 515.6 370.4 512.9 370.4 512.4 368.0 510.4 367.1 510.4Z"/>
    <path id="cp-28041" class="distrito" data-nombre="28041" d="M353.5 766.6 356.0 767.5 366.4 777.8 371.2 790.0 374.8 791.8 378.3 794.2 384.9 802.9 388.0 801.8 398.0 804.0 405.1 800.3 410.3 798.2 412.5 796.8 417.4 792.6 423.9 785.6 432.1 774.6 435.4 772.8 448.3 768.1 448.1 764.2 446.7 757.5 433.7 751.7 431.9 747.1 430.6 745.6 427.3 744.4 424.8 741.7 423.7 738.9 423.4 736.2 423.8 732.0 423.4 729.7 419.4 720.9 419.3 717.8 418.4 716.9 409.2 716.0 406.4 718.5 406.1 720.1 398.1 725.0 394.9 727.7 392.0 734.1 391.6 740.2 390.9 742.9 389.9 744.9 386.3 744.4 368.5 737.9 356.6 737.3 353.4 753.3 353.5 760.1 354.0 760.8Z"/>
    <path id="cp-28042" class="distrito" data-nombre="28042" d="M551.3 531.8 554.5 530.8 592.4 531.7 602.3 530.8 630.0 531.2 662.4 530.8 690.5 531.3 698.4 531.8 733.8 537.7 737.0 540.3 739.1 540.6 741.4 540.6 744.8 539.5 743.0 536.6 740.4 530.0 738.3 526.6 738.1 524.6 741.0 519.9 743.3 518.0 745.5 517.8 747.9 518.8 751.2 518.7 753.5 517.8 754.7 516.4 754.6 515.2 753.7 513.4 749.5 508.7 748.4 502.0 750.2 494.1 752.1 490.6 755.1 487.0 757.5 483.5 757.9 479.5 756.3 477.8 754.1 476.3 746.2 474.0 741.9 473.6 740.6 473.0 739.3 471.8 738.5 468.9 737.4 450.1 735.5 443.9 733.4 440.4 732.4 437.9 733.1 432.5 732.1 431.4 727.1 428.1 725.3 427.4 724.8 426.7 724.2 418.4 723.1 415.2 723.2 411.8 718.4 407.7 712.9 404.9 705.9 402.0 701.3 398.6 699.3 395.6 698.6 390.2 698.9 389.0 695.4 387.1 695.9 380.6 695.5 372.2 697.1 365.2 689.2 365.5 682.7 366.9 682.2 366.7 681.9 365.5 675.7 363.2 661.1 362.4 653.4 367.7 649.1 367.8 638.9 372.8 635.3 377.6 630.8 381.4 626.1 383.7 617.3 392.1 616.1 392.1 615.4 392.6 614.1 392.8 612.4 392.4 611.0 392.8 607.8 392.7 602.9 391.1 601.8 391.5 600.8 391.3 598.9 392.5 600.4 436.8 599.0 468.0 594.9 468.4 557.2 468.0 554.5 469.9 550.2 477.2 548.9 482.3 550.9 484.7 557.1 495.3 568.7 508.4 565.5 514.3 563.2 516.7 560.5 518.4 551.7 522.3 550.7 524.0 550.4 528.1 551.1 528.8Z"/>
    <path id="cp-28043" class="distrito" data-nombre="28043" d="M503.1 468.1 501.8 468.8 501.1 470.7 499.3 470.6 498.6 472.0 498.8 474.5 498.1 475.9 497.3 476.4 482.8 496.6 481.8 500.4 480.0 505.4 479.2 505.5 476.9 504.0 475.7 502.6 473.9 502.1 469.8 504.2 471.9 511.4 474.7 532.6 477.1 542.5 478.3 545.1 498.7 535.0 504.3 531.8 506.8 531.1 509.5 531.3 524.6 534.4 528.8 534.4 539.5 532.4 550.1 532.0 549.9 529.2 549.1 528.3 549.6 523.8 550.7 521.5 560.0 517.3 562.5 515.8 564.5 513.6 567.4 508.6 556.1 496.1 549.9 485.4 545.8 480.4 543.6 481.3 535.3 480.0 533.1 478.4 515.8 477.1 510.5 474.4 508.6 473.0 507.8 471.7 504.8 470.9 503.4 470.1Z"/>
    <path id="cp-28044" class="distrito" data-nombre="28044" d="M220.2 720.4 223.7 726.4 223.5 738.1 235.9 739.5 237.2 735.3 237.9 734.9 271.8 741.9 271.9 742.6 269.1 748.5 269.9 748.8 269.8 752.1 270.2 753.2 268.8 755.0 270.1 757.6 277.2 759.0 278.7 757.2 280.7 758.3 281.4 757.7 287.2 758.3 291.0 761.4 292.5 760.7 299.0 761.6 300.2 761.3 301.0 757.5 302.0 756.1 304.0 755.3 307.7 755.7 308.7 753.9 304.6 750.7 303.8 749.6 308.4 744.2 309.6 743.7 309.8 740.3 306.9 740.2 305.2 739.5 296.1 732.7 291.3 731.0 286.6 730.0 282.8 728.0 281.2 726.6 280.3 725.5 279.5 723.1 276.3 717.0 274.5 714.3 262.4 701.1 258.0 694.9 256.7 693.8 253.3 696.7 253.1 697.3 250.5 699.7 249.5 701.3 241.5 708.3 235.4 712.0 231.5 715.0Z"/>
    <path id="cp-28045" class="distrito" data-nombre="28045" d="M409.6 648.3 406.8 651.7 406.5 652.7 399.1 663.2 397.2 663.6 397.3 665.5 396.0 667.8 388.0 678.9 390.2 680.2 392.5 682.5 400.5 694.3 407.5 702.2 414.1 708.3 424.3 712.6 424.1 713.5 419.6 716.4 420.5 717.3 420.5 720.5 424.6 729.4 425.0 732.0 424.6 736.2 424.9 738.7 425.9 741.1 428.1 743.5 431.1 744.6 432.8 746.3 434.6 750.8 447.7 756.7 449.0 762.5 454.1 759.4 428.4 716.0 427.3 711.7 431.1 708.3 433.8 703.9 435.2 701.6 437.1 696.0 439.5 690.8 451.0 680.9 447.8 674.9 445.4 671.5 441.8 668.0 438.1 665.2 430.4 661.9 422.9 657.6 419.1 652.8 414.5 645.0 412.2 646.6 411.3 648.0 410.2 648.5Z"/>
    <path id="cp-28046" class="distrito" data-nombre="28046" d="M410.3 535.1 410.6 540.0 413.6 540.2 414.1 540.6 412.8 555.5 414.4 560.5 415.0 564.0 419.0 572.7 419.5 577.8 417.7 589.4 416.5 594.4 415.6 596.8 414.8 597.4 414.7 598.7 417.5 599.4 417.6 595.7 419.8 584.6 419.9 582.0 421.7 577.1 421.0 571.3 416.6 563.6 417.3 561.9 415.5 560.6 414.4 555.4 416.6 528.2 417.5 525.7 417.7 515.8 419.0 504.9 419.2 489.7 419.5 489.1 419.3 486.0 420.7 482.2 421.4 481.8 422.5 479.9 423.4 479.4 425.8 475.3 426.4 475.0 426.4 474.4 428.3 471.1 431.2 469.9 437.2 449.4 437.6 440.9 425.3 443.2 422.3 465.2 421.1 467.5 418.9 476.8 419.5 479.4 418.3 485.8 416.8 487.3 417.1 494.7 416.2 496.7 416.5 498.9 415.1 499.9 414.9 501.5 416.2 501.9 415.6 505.6 416.2 507.6 415.9 508.0 414.6 508.1 414.5 509.1 415.8 509.4 416.0 509.9 415.4 520.3 413.5 525.7 411.7 533.2Z"/>
    <path id="cp-28047" class="distrito" data-nombre="28047" d="M270.2 705.6 278.1 714.0 279.2 716.3 277.7 717.1 282.0 725.7 283.4 726.9 287.1 728.9 292.9 730.3 295.8 726.7 295.3 722.4 296.6 719.2 298.0 713.3 300.3 708.3 301.1 707.4 304.5 705.2 306.3 702.8 304.8 701.9 303.4 700.1 304.6 698.2 305.8 694.2 306.9 691.8 308.7 689.3 316.4 681.5 317.3 679.1 319.0 676.7 324.9 670.3 335.2 660.7 340.7 656.7 335.5 655.0 332.1 652.5 330.5 653.0 328.2 655.1 325.4 656.5 321.5 657.5 311.7 655.9 308.1 655.7 303.5 655.9 298.3 656.9 294.3 658.4 292.4 659.9 288.0 662.4 286.0 664.4 282.0 671.5 279.1 674.5 275.6 676.0 274.8 684.4 275.3 695.0 273.3 702.0Z"/>
    <path id="cp-28048" class="distrito" data-nombre="28048" d="M14.9 227.5 15.1 229.8 20.4 232.8 27.0 233.0 34.1 235.0 35.0 237.0 36.9 238.0 37.7 238.9 39.5 244.9 39.4 246.8 40.1 250.8 41.4 253.4 44.2 256.5 47.7 264.2 47.0 266.5 51.0 271.4 54.6 277.2 54.9 279.8 55.7 280.8 57.5 287.3 58.3 288.6 58.5 293.3 60.1 301.0 65.1 305.8 67.1 309.7 70.1 313.4 69.8 315.0 71.0 319.3 74.1 321.8 78.2 327.2 77.9 337.2 80.3 342.3 83.2 345.4 84.3 347.4 83.1 350.1 82.4 353.4 80.1 356.1 78.8 362.7 81.7 368.6 87.0 370.9 88.3 370.4 113.3 378.8 113.7 379.3 112.1 385.0 110.5 388.1 108.9 397.0 119.1 411.2 119.7 417.4 121.2 422.5 121.9 429.0 121.5 434.0 117.9 443.1 116.5 444.1 133.1 451.4 190.8 475.4 200.5 473.7 201.9 473.1 202.9 468.9 208.5 464.2 212.8 452.6 215.6 449.6 219.2 447.9 222.3 449.0 224.4 451.2 231.3 461.8 236.9 462.1 247.2 452.3 267.7 434.8 283.3 422.6 297.0 410.4 304.6 399.3 310.6 395.2 323.7 381.5 335.9 366.4 355.6 344.4 371.1 316.4 383.3 297.1 376.5 285.6 372.1 272.9 362.9 234.2 362.3 229.2 362.3 225.3 364.4 220.0 368.6 213.1 370.4 207.4 369.7 195.6 365.1 171.3 361.1 170.8 356.7 172.9 353.8 172.7 352.0 171.5 338.0 166.3 334.4 164.6 330.3 164.0 327.2 164.1 319.5 162.0 317.2 160.8 316.0 158.8 314.1 153.1 311.8 149.6 302.8 146.4 301.7 145.4 294.9 144.0 292.8 144.7 287.7 139.0 285.2 138.3 278.0 135.0 275.5 134.7 272.8 132.3 263.7 128.9 261.3 128.6 255.6 125.3 242.8 122.8 234.7 119.5 233.6 119.6 231.5 121.1 227.8 122.0 227.2 121.8 225.7 120.0 224.1 119.5 220.8 123.0 218.1 123.2 212.7 126.6 210.9 127.0 199.5 124.5 196.7 124.6 195.7 125.0 191.7 128.4 187.5 127.2 182.6 127.2 181.9 126.2 188.6 110.5 188.3 108.2 186.3 107.2 184.9 107.1 178.8 104.3 176.4 102.1 176.1 100.1 176.7 98.7 174.2 99.4 171.2 99.1 170.4 98.7 170.0 97.7 169.5 98.5 167.7 98.7 166.4 100.5 164.2 101.4 166.5 103.4 168.3 104.2 169.5 105.5 170.5 108.7 177.9 123.8 177.9 124.4 161.5 134.7 160.2 136.8 156.4 138.0 148.0 137.9 142.7 139.2 135.2 138.6 132.5 138.8 127.8 140.5 124.2 141.0 121.2 141.9 116.9 145.7 114.3 147.1 112.1 147.9 106.0 145.0 103.7 144.3 101.0 144.8 98.7 145.7 95.4 147.8 88.2 149.4 79.1 154.6 76.3 156.8 75.1 156.2 69.7 157.1 65.8 156.3 63.2 154.6 58.1 152.6 55.3 150.2 53.1 146.5 50.6 145.6 47.0 146.2 40.9 147.8 37.2 148.3 33.1 151.1 33.0 153.1 31.5 155.0 28.4 156.7 17.4 164.3 17.1 168.8 17.8 171.4 16.4 174.7 17.2 177.3 17.2 181.1 14.3 191.3 13.1 194.3 7.7 199.5 6.6 202.9 8.6 208.1 8.7 209.9 10.4 214.6 17.2 221.8 16.9 224.3Z"/>
    <path id="cp-28049" class="distrito" data-nombre="28049" d="M357.0 406.3 362.3 399.9 366.3 399.7 375.7 397.4 378.7 395.8 384.2 395.6 395.0 396.0 398.7 398.1 403.5 392.3 417.4 370.7 417.9 370.3 417.8 369.7 418.6 368.5 424.9 364.1 431.6 361.7 448.4 356.8 455.8 351.4 445.7 345.8 442.1 344.3 442.0 343.7 448.9 327.1 447.7 326.5 446.5 324.9 443.3 322.6 443.0 322.1 444.5 321.0 446.3 317.8 453.3 311.3 456.1 307.8 459.3 302.0 457.2 299.6 454.5 294.7 451.2 293.0 450.0 292.1 446.3 284.2 443.9 282.2 441.1 278.0 440.0 272.4 440.4 269.1 437.2 263.5 435.1 262.0 432.1 257.3 431.9 255.9 432.8 252.1 432.3 249.5 425.4 233.3 423.0 224.0 417.6 209.2 417.5 206.1 415.7 208.2 413.1 206.1 411.7 203.5 411.1 201.3 409.2 199.7 406.9 195.9 404.4 194.5 402.2 192.4 401.7 191.3 401.6 189.1 399.9 187.1 396.0 183.3 393.0 183.2 392.8 181.6 393.3 181.3 397.7 181.3 405.0 178.6 410.0 177.6 413.6 176.2 415.7 174.9 419.8 170.6 423.0 170.6 425.5 169.7 435.0 163.1 463.9 144.7 468.4 144.0 472.6 144.0 475.8 144.6 478.7 145.8 481.9 149.0 487.5 153.5 488.6 155.2 491.3 161.4 494.8 174.9 498.4 183.0 499.9 184.8 505.2 185.8 510.9 186.0 513.8 186.7 515.5 187.2 518.1 189.1 520.6 190.3 526.5 191.7 532.3 192.5 536.0 192.4 539.1 191.4 545.1 194.8 551.4 194.9 569.1 176.3 578.4 172.4 589.7 163.6 592.4 156.5 594.0 154.8 596.7 153.2 598.0 150.3 599.0 145.1 596.0 143.2 592.9 139.6 592.6 136.9 592.9 135.3 591.9 133.9 588.6 132.9 584.7 128.5 581.2 127.7 578.7 125.6 576.1 124.6 573.3 122.7 571.2 122.3 569.1 120.0 568.5 117.8 569.3 115.6 568.1 112.2 567.4 108.1 568.0 104.8 564.9 99.3 565.8 96.0 565.6 93.5 562.1 91.8 560.5 89.8 557.6 82.7 556.1 80.8 553.8 79.5 547.6 78.5 544.4 76.3 543.6 74.5 543.5 71.3 541.8 68.0 543.1 63.0 540.2 53.7 541.4 50.8 541.3 49.5 540.4 47.1 534.6 40.7 531.1 33.0 527.8 28.8 526.7 24.3 525.5 22.4 522.7 20.0 520.2 19.8 515.6 20.9 511.0 21.0 502.2 11.6 495.5 8.4 488.3 6.6 487.6 7.5 483.2 9.6 476.2 16.9 475.1 21.1 468.4 31.5 464.7 39.6 462.5 45.5 462.3 53.1 465.3 62.3 466.4 69.0 465.8 70.6 456.4 76.8 450.6 78.9 449.3 79.8 439.1 94.5 427.9 100.7 423.0 105.8 416.5 120.4 413.9 130.7 404.6 151.7 392.6 159.9 386.1 165.7 386.0 170.0 385.7 170.5 380.8 170.1 379.9 168.7 374.3 170.2 369.8 169.7 366.4 171.4 370.9 195.4 371.6 207.4 369.8 213.5 365.5 220.5 363.5 225.6 363.5 229.1 364.1 234.0 373.2 272.5 377.6 285.0 384.6 297.1 372.1 317.0 356.5 345.1 336.8 367.1 324.5 382.3 311.4 396.1 306.3 399.6 330.1 411.4 331.4 408.1 341.9 396.5 355.2 394.1 356.2 394.6 356.2 395.5 343.2 408.4 337.9 415.3 334.3 417.5 328.7 423.1 326.2 427.1 326.4 429.8 327.7 431.2 329.8 431.8 332.0 431.3 333.5 432.8 334.8 432.0 336.3 430.2 339.1 425.8 346.3 420.3 353.0 412.0Z"/>
    <path id="cp-28050" class="distrito" data-nombre="28050" d="M450.7 438.0 464.6 436.6 484.5 440.1 501.1 444.8 509.3 445.9 514.4 447.6 517.5 447.7 514.4 439.0 513.4 426.9 509.3 410.9 504.3 386.3 502.8 380.7 502.0 378.9 499.8 376.1 495.9 372.1 491.0 369.5 483.0 367.1 482.9 364.7 481.6 363.9 480.5 358.5 476.0 349.4 472.8 341.4 466.0 338.5 467.0 333.0 466.4 329.3 463.3 328.1 454.5 329.8 450.0 327.7 443.3 343.6 446.2 344.8 457.2 350.7 457.5 351.2 457.2 351.7 448.9 357.9 432.6 362.7 436.4 375.3 437.4 383.7 439.9 390.8 443.3 407.8 445.0 413.0Z"/>
    <path id="cp-28051" class="distrito" data-nombre="28051" d="M499.8 850.3 500.5 849.7 501.1 847.8 501.7 847.5 511.4 854.5 515.0 859.0 521.4 863.4 530.0 871.1 531.5 872.8 531.4 873.5 533.5 875.6 540.4 881.6 545.3 884.2 549.4 885.8 552.3 882.7 554.9 884.3 562.2 886.3 570.5 890.0 575.1 896.0 580.5 899.3 586.7 901.1 606.9 905.4 629.2 903.4 643.2 900.7 648.7 900.4 650.1 899.4 648.8 899.4 645.9 896.2 640.8 896.2 639.6 895.6 637.0 896.4 636.2 896.0 633.6 888.9 633.6 883.2 635.1 877.3 639.0 867.2 645.3 862.4 650.9 856.2 654.0 851.8 659.2 846.9 660.9 844.4 664.9 836.3 668.5 827.3 674.4 817.9 681.1 810.5 684.1 804.7 687.8 801.8 690.2 795.5 692.6 794.0 696.5 790.8 699.3 786.4 700.1 782.0 700.3 772.9 696.8 776.6 695.5 776.9 694.5 775.9 694.6 773.8 693.9 770.8 695.4 764.9 697.0 763.1 698.8 762.6 701.1 759.5 703.0 748.4 697.7 744.8 696.1 747.5 687.6 748.9 682.4 759.3 674.7 769.6 674.1 769.8 670.3 768.6 662.1 763.7 652.9 760.5 633.2 757.4 606.5 740.9 582.0 726.4 575.7 724.8 574.2 724.9 569.7 738.4 573.0 746.7 572.9 747.3 572.0 748.2 563.2 752.7 560.9 751.9 555.1 752.8 547.9 746.9 543.0 752.2 535.1 746.5 527.3 741.7 519.9 745.9 503.7 753.9 501.2 756.3 502.8 759.7 503.8 762.8 504.1 766.0 502.9 769.6 499.2 776.3 496.2 780.6 492.7 783.1 465.4 793.4 458.9 792.6 455.7 791.4 442.1 779.9 443.9 783.0 445.8 788.9 446.2 791.5 449.9 793.9 451.4 796.2 452.6 801.6 453.7 802.7 460.1 806.4 460.8 809.9 460.5 816.2 467.6 819.2 470.9 822.8 472.5 825.3 473.4 829.1 475.3 832.1 478.1 841.5 494.0 853.6 499.0 850.3Z"/>
    <path id="cp-28052" class="distrito" data-nombre="28052" d="M703.6 747.4 703.6 738.6 704.3 735.3 705.9 732.3 708.7 729.6 707.9 725.2 707.7 719.8 708.7 717.3 710.4 715.4 714.7 707.4 715.4 704.3 717.1 701.6 718.6 698.0 721.9 685.3 722.5 685.2 733.0 690.1 742.4 689.1 744.1 690.0 750.0 695.3 754.3 694.3 759.4 691.5 763.3 688.6 767.3 688.0 767.5 683.9 769.0 672.3 771.1 665.7 771.8 661.1 771.6 658.7 770.1 654.7 769.5 650.8 769.7 643.1 767.5 638.5 766.2 634.5 763.2 629.5 759.0 625.8 757.8 623.2 752.6 619.6 746.6 614.3 750.0 628.9 749.8 629.5 744.3 630.4 742.0 630.4 740.1 630.2 737.6 629.2 737.0 631.5 735.8 632.4 735.6 633.5 733.1 633.6 732.4 634.0 731.9 636.1 730.8 636.8 728.4 636.2 728.4 638.8 727.8 639.4 708.3 634.3 705.6 635.3 699.4 635.9 693.5 634.3 688.2 631.9 677.1 630.9 670.5 632.1 668.4 632.6 663.9 635.0 659.3 635.6 649.3 630.5 647.9 627.0 648.0 626.3 645.4 620.9 643.2 622.2 638.2 636.8 632.6 644.2 627.9 649.5 624.6 654.7 617.0 660.3 608.9 667.2 607.4 670.2 597.0 678.2 596.4 679.6 597.1 682.5 599.4 684.9 613.2 687.2 620.6 690.1 628.9 692.7 645.3 699.7 648.8 700.4 654.9 702.9 663.4 710.3 670.2 717.2 676.2 721.2 688.2 736.0 697.8 743.4Z"/>
    <path id="cp-28053" class="distrito" data-nombre="28053" d="M475.9 688.0 474.8 686.9 474.8 686.1 475.6 685.8 476.6 686.6 477.4 684.8 460.0 672.8 455.2 679.7 452.5 682.2 451.4 682.1 440.6 691.5 438.2 696.5 436.3 702.0 434.9 704.5 432.1 709.0 428.6 712.2 429.4 715.5 455.5 759.6 455.3 760.1 449.2 763.8 449.5 768.5 449.1 769.1 436.8 773.6 456.3 790.3 459.1 791.5 465.4 792.2 492.2 782.0 495.2 779.9 498.2 775.6 501.8 769.1 502.9 765.7 501.7 760.1 499.3 755.3 495.8 751.4 494.3 748.6 492.3 738.1 494.2 732.8 489.4 732.8 482.7 731.7 475.8 729.1 470.4 725.8 463.8 719.6 460.6 714.8 460.0 712.7 461.0 709.9 461.7 708.9 463.8 707.2 466.7 702.7 466.9 701.4 468.6 699.8 469.5 698.1 469.2 695.8 471.1 694.7 472.7 691.4Z"/>
    <path id="cp-28054" class="distrito" data-nombre="28054" d="M184.4 766.1 200.3 770.2 215.3 778.7 216.4 778.4 218.8 777.0 225.4 772.4 230.7 770.1 238.1 771.7 245.0 773.7 247.2 775.8 249.7 775.6 259.8 778.5 277.3 782.6 333.2 766.1 340.4 762.8 347.9 760.6 352.3 760.2 352.2 753.1 354.8 739.3 339.5 740.4 335.6 740.4 325.4 739.1 319.8 739.0 315.8 739.1 311.0 740.2 310.6 744.6 309.2 745.1 305.3 749.6 310.0 753.5 308.5 756.6 307.9 756.9 304.0 756.5 302.8 757.0 302.1 757.9 301.3 761.9 300.9 762.4 298.9 762.8 292.5 761.9 290.9 762.8 286.9 759.4 281.8 759.0 281.1 759.8 278.9 758.6 277.8 760.1 277.3 760.2 269.3 758.6 267.6 755.1 267.7 754.5 268.9 753.0 268.6 752.1 268.8 749.6 267.9 749.5 267.6 749.0 270.5 742.8 238.2 736.2 236.5 740.7 222.5 739.1 222.3 738.6 222.5 726.6 218.1 718.8 217.3 721.7 209.3 727.8 206.8 727.9 198.3 736.1 179.4 761.1Z"/>
    <path id="cp-28055" class="distrito" data-nombre="28055" d="M484.1 364.6 484.0 366.2 491.4 368.4 496.7 371.2 500.7 375.3 503.0 378.2 503.9 380.3 505.5 386.1 510.5 410.7 514.6 426.6 515.6 438.7 518.8 447.8 523.0 447.9 529.4 449.5 533.1 452.1 536.1 454.8 541.0 461.8 542.6 463.3 545.4 465.7 549.9 468.1 553.9 468.9 557.0 466.8 597.9 467.1 599.2 437.0 597.7 392.4 596.7 392.0 594.1 388.1 591.1 385.1 590.5 383.7 589.9 380.6 589.2 379.7 584.1 376.2 580.0 371.6 576.6 370.9 573.7 368.4 573.4 367.0 572.3 366.7 568.5 367.6 566.7 368.6 560.4 368.9 556.6 371.6 554.7 371.7 550.9 370.7 544.8 373.6 540.6 373.2 534.7 375.5 533.6 374.8 521.5 374.6 516.4 373.7 513.4 374.4 511.6 374.1 510.5 374.7 508.0 372.7 503.7 367.6 501.3 366.5 494.6 365.6 494.4 364.7 490.3 361.3 487.4 360.5Z"/>
  </g>
</svg>
