<?xml version="1.0" encoding="UTF-8"?>
<svg xmlns="http://www.w3.org/2000/svg" viewBox="0 0 312.0 306.0" role="img" aria-label="Códigos postales de Fuenlabrada">
  <g id="distritos">
    <path id="cp-28941" class="distrito" data-nombre="28941" d="M110.7 111.8 111.9 113.2 114.9 113.4 117.7 116.8 115.5 125.0 115.9 127.8 113.2 130.1 112.3 131.3 112.0 137.8 117.0 140.5 124.8 149.5 127.6 153.3 130.4 154.9 130.9 156.9 137.4 164.1 140.4 155.5 142.5 151.7 146.8 140.4 147.4 137.6 152.2 124.5 154.0 121.2 145.9 118.5 134.4 117.8 127.7 116.3 127.2 115.7 127.8 115.0 125.5 113.3 124.2 113.1 120.8 111.3 120.3 112.6 119.7 112.7 117.5 110.1 113.6 108.2 112.9 108.2Z"/>
    <path id="cp-28942" class="distrito" data-nombre="28942" d="M6.7 93.3 7.9 108.7 7.7 121.9 8.9 129.4 9.1 132.5 9.7 134.1 7.3 141.6 10.4 151.2 11.2 155.0 14.6 161.8 16.0 167.2 16.2 171.9 18.1 176.3 19.3 180.0 19.8 183.2 20.0 187.1 21.9 192.8 20.1 196.8 24.6 197.7 30.9 196.4 45.5 196.4 50.0 195.1 53.7 194.8 76.5 196.7 82.4 195.9 96.0 196.0 102.6 197.2 102.9 202.0 103.3 201.8 104.4 197.3 101.1 192.3 99.0 178.3 96.3 165.2 96.9 164.9 103.9 165.2 103.7 161.6 104.1 158.8 105.5 156.6 111.7 152.7 116.9 147.6 120.4 146.3 116.1 141.4 111.1 138.7 110.8 138.2 111.1 131.1 112.4 129.2 114.7 127.4 114.3 124.8 116.5 117.1 114.4 114.5 111.4 114.4 109.7 112.5 109.5 111.5 111.8 107.7 105.0 104.1 96.9 96.4 96.1 87.9 95.6 86.4 95.9 78.3 95.2 74.3 94.9 62.4 93.3 56.3 92.8 51.1 90.0 43.8 87.5 34.3 85.5 29.1 83.7 18.9 80.0 6.7 71.0 8.9 65.0 9.8 64.5 10.4 61.0 11.1 57.3 11.2 51.4 12.4 46.0 15.1 42.4 16.0 40.5 15.8 29.2 16.5 23.3 18.9 19.8 18.5 13.5 20.0 7.9 19.8 8.1 24.3 7.3 32.1 7.4 34.1 8.1 37.6 9.4 54.5 11.8 68.0 12.6 78.8 12.1 79.5 8.8 80.3 9.9 87.8 7.4 90.5Z"/>
    <path id="cp-28943" class="distrito" data-nombre="28943" d="M136.9 165.3 129.9 157.5 129.4 155.7 126.7 154.2 121.2 147.2 117.6 148.5 112.4 153.6 106.4 157.4 105.3 159.1 104.9 161.5 105.2 165.8 104.9 166.4 97.6 166.1 100.2 178.1 102.2 191.9 105.5 196.8 107.4 200.8 124.4 185.5 129.4 184.9 130.3 180.9 133.2 172.5Z"/>
    <path id="cp-28944" class="distrito" data-nombre="28944" d="M103.0 203.3 105.5 222.8 111.0 248.1 120.4 249.3 165.7 205.3 170.0 203.1 178.6 193.3 187.2 188.0 186.4 187.7 184.5 189.3 182.6 189.7 174.7 187.6 174.3 184.8 172.6 182.2 173.6 181.2 174.7 178.0 175.9 176.7 176.7 173.8 177.0 168.5 175.8 168.3 174.0 167.3 172.5 165.0 170.5 164.4 160.1 158.5 157.0 158.9 155.8 159.1 155.5 161.9 153.1 166.1 151.9 167.4 153.2 170.6 153.5 172.0 153.2 172.6 152.4 172.7 151.8 172.3 150.6 168.9 148.4 170.9 146.2 170.9 144.4 173.8 143.8 174.1 140.3 171.6 135.7 170.4 134.3 172.9 131.4 181.3 130.9 184.7 130.2 185.8 125.1 186.5 107.4 202.4 106.7 202.0 105.2 199.0 104.3 202.7Z"/>
    <path id="cp-28945" class="distrito" data-nombre="28945" d="M148.0 169.8 152.1 165.4 154.4 161.4 154.7 158.5 155.2 158.0 160.5 157.3 171.0 163.4 173.3 164.0 174.7 166.3 177.0 167.3 179.7 162.1 182.8 159.9 183.9 160.9 188.8 167.4 191.9 169.6 197.1 171.8 203.2 173.0 215.4 178.0 215.8 179.2 217.5 179.9 217.9 180.4 217.1 182.1 217.4 185.0 218.5 187.0 219.4 182.1 221.8 160.1 221.7 137.6 221.1 133.0 216.6 134.6 215.0 134.8 214.2 135.9 210.6 137.8 209.5 139.1 208.8 139.4 205.1 138.5 196.6 132.0 193.9 128.1 190.8 127.4 190.3 128.5 189.1 128.7 184.7 127.4 180.7 127.1 178.3 125.5 175.5 125.8 171.6 125.2 169.6 124.4 167.5 124.3 162.7 125.0 155.1 121.7 153.3 125.0 148.6 138.0 148.0 140.8 143.6 152.2 141.5 155.9 138.4 165.0 136.3 169.3 140.8 170.5 143.6 172.6 144.7 170.5 145.6 169.8Z"/>
    <path id="cp-28946" class="distrito" data-nombre="28946" d="M136.3 296.1 136.2 295.2 136.7 294.8 142.9 294.0 152.3 298.5 157.4 298.2 166.3 299.4 173.0 298.3 180.6 296.3 186.0 295.8 198.6 295.4 203.1 295.9 204.4 297.3 211.0 294.2 223.2 289.9 226.4 288.4 230.4 285.8 234.7 281.0 236.4 277.6 239.6 267.7 243.9 257.9 254.7 236.7 254.0 234.9 252.8 233.7 246.0 229.4 246.6 227.5 245.9 226.7 246.5 225.3 246.1 225.1 245.4 226.4 244.4 226.2 243.8 227.3 243.2 227.3 240.5 224.1 240.5 223.4 234.3 227.0 233.9 227.8 233.2 229.2 234.8 231.3 234.8 231.9 230.3 241.2 229.6 241.2 227.6 240.0 226.9 240.7 223.8 239.6 223.8 239.0 231.7 222.5 221.8 217.3 221.6 216.6 223.0 213.5 226.5 211.4 234.6 215.5 240.9 204.7 243.6 205.2 244.3 204.7 246.3 205.1 246.8 205.8 246.3 208.7 248.1 208.5 248.6 209.3 246.6 214.6 247.7 215.2 247.8 215.8 245.2 221.7 245.6 222.0 247.9 217.1 248.8 213.6 251.0 214.0 251.5 215.2 251.1 216.5 255.2 219.2 252.9 224.5 259.0 228.1 267.0 213.3 273.1 200.1 269.6 199.0 268.0 197.5 261.9 196.0 261.5 195.6 241.8 133.0 239.3 133.2 230.8 130.7 229.0 130.5 227.1 130.7 222.3 132.8 222.9 137.6 223.0 160.1 220.6 182.2 219.5 188.0 217.9 188.2 216.2 185.5 215.9 182.0 216.5 180.7 214.8 180.0 214.4 178.8 202.8 174.2 196.9 173.0 191.4 170.7 187.9 168.2 182.6 161.2 180.7 162.8 178.2 167.4 177.9 173.9 177.1 177.1 175.7 178.8 174.6 181.8 174.1 182.3 175.3 184.3 175.7 186.7 182.5 188.5 183.8 188.3 186.5 186.5 188.3 187.2 188.4 188.7 179.5 194.2 170.8 203.9 166.4 206.2 121.0 250.4 111.3 249.4 113.2 258.0 118.0 268.0 124.4 278.3 130.1 297.1Z"/>
    <path id="cp-28947" class="distrito" data-nombre="28947" d="M222.9 216.6 232.9 221.7 233.2 222.2 225.1 238.9 226.5 239.4 227.4 238.5 229.7 239.9 231.7 235.3 229.9 234.3 229.7 233.5 230.6 232.3 232.7 233.6 233.6 231.7 231.9 229.3 233.1 226.5 240.5 221.7 242.1 222.2 241.7 223.7 243.3 225.7 243.9 224.9 244.8 225.1 245.8 223.7 247.7 224.7 247.9 225.2 247.3 226.5 247.9 227.2 247.3 228.9 253.5 232.8 255.0 234.2 255.9 237.0 245.0 258.4 240.7 268.2 238.0 276.5 243.0 276.7 243.1 278.6 252.3 279.1 253.1 282.0 256.9 289.5 258.4 295.4 259.1 296.3 261.8 295.6 265.1 294.0 272.4 289.2 273.0 289.5 275.4 292.7 280.1 289.9 285.0 280.7 285.6 280.7 292.6 284.9 295.0 284.5 300.7 282.2 305.3 220.6 297.5 220.7 296.4 220.3 291.9 216.8 288.2 213.0 284.5 211.4 282.0 209.2 281.8 208.5 282.2 207.4 279.1 205.7 280.0 203.4 274.2 200.5 268.1 213.8 259.6 229.5 258.9 229.5 251.6 225.0 253.9 219.5 249.8 217.1 250.3 215.0 249.6 214.8 249.0 217.6 246.2 223.3 245.6 223.3 243.9 222.3 243.9 221.8 246.4 215.9 245.3 215.3 245.2 214.8 247.2 209.6 246.6 210.8 245.8 210.7 245.1 208.6 245.5 206.1 244.6 206.0 243.8 206.5 241.4 205.9 235.1 216.8 234.5 216.8 226.5 212.7 224.0 214.1Z"/>
  </g>
</svg>
